<mxfile host="app.diagrams.net" modified="2023-10-28T20:54:15.502Z" agent="Mozilla/5.0 (Windows NT 10.0; Win64; x64) AppleWebKit/537.36 (KHTML, like Gecko) Chrome/118.0.0.0 Safari/537.36" etag="TB2LuDDIATQukrwL7vaJ" version="22.0.8" type="github">
  <diagram id="R2lEEEUBdFMjLlhIrx00" name="Page-1">
    <mxGraphModel dx="1750" dy="1990" grid="1" gridSize="10" guides="1" tooltips="1" connect="1" arrows="1" fold="1" page="1" pageScale="1" pageWidth="850" pageHeight="1100" math="0" shadow="0" extFonts="Permanent Marker^https://fonts.googleapis.com/css?family=Permanent+Marker">
      <root>
        <mxCell id="0" />
        <mxCell id="1" parent="0" />
        <mxCell id="WOvvrHIvMTqIvkMF3Rv9-8" value="admin_id" style="ellipse;whiteSpace=wrap;html=1;" vertex="1" parent="1">
          <mxGeometry x="10" y="80" width="100" height="50" as="geometry" />
        </mxCell>
        <mxCell id="WOvvrHIvMTqIvkMF3Rv9-9" value="admin_fname" style="ellipse;whiteSpace=wrap;html=1;" vertex="1" parent="1">
          <mxGeometry x="30" y="10" width="100" height="50" as="geometry" />
        </mxCell>
        <mxCell id="WOvvrHIvMTqIvkMF3Rv9-10" value="" style="endArrow=none;html=1;rounded=0;exitX=1;exitY=0.5;exitDx=0;exitDy=0;entryX=0.413;entryY=0;entryDx=0;entryDy=0;entryPerimeter=0;" edge="1" parent="1" source="WOvvrHIvMTqIvkMF3Rv9-8">
          <mxGeometry width="50" height="50" relative="1" as="geometry">
            <mxPoint x="100" y="220" as="sourcePoint" />
            <mxPoint x="199.55999999999995" y="130" as="targetPoint" />
          </mxGeometry>
        </mxCell>
        <mxCell id="WOvvrHIvMTqIvkMF3Rv9-11" value="" style="endArrow=none;html=1;rounded=0;" edge="1" parent="1" source="WOvvrHIvMTqIvkMF3Rv9-9">
          <mxGeometry width="50" height="50" relative="1" as="geometry">
            <mxPoint x="400" y="300" as="sourcePoint" />
            <mxPoint x="200" y="130" as="targetPoint" />
          </mxGeometry>
        </mxCell>
        <mxCell id="WOvvrHIvMTqIvkMF3Rv9-12" value="admin_mname" style="ellipse;whiteSpace=wrap;html=1;" vertex="1" parent="1">
          <mxGeometry x="130" y="-10" width="100" height="50" as="geometry" />
        </mxCell>
        <mxCell id="WOvvrHIvMTqIvkMF3Rv9-13" value="" style="endArrow=none;html=1;rounded=0;entryX=0.5;entryY=1;entryDx=0;entryDy=0;" edge="1" parent="1" target="WOvvrHIvMTqIvkMF3Rv9-12">
          <mxGeometry width="50" height="50" relative="1" as="geometry">
            <mxPoint x="200" y="130" as="sourcePoint" />
            <mxPoint x="450" y="250" as="targetPoint" />
          </mxGeometry>
        </mxCell>
        <mxCell id="WOvvrHIvMTqIvkMF3Rv9-14" value="admin_lname" style="ellipse;whiteSpace=wrap;html=1;" vertex="1" parent="1">
          <mxGeometry x="240" y="10" width="100" height="50" as="geometry" />
        </mxCell>
        <mxCell id="WOvvrHIvMTqIvkMF3Rv9-15" value="" style="endArrow=none;html=1;rounded=0;entryX=0.5;entryY=1;entryDx=0;entryDy=0;" edge="1" parent="1" target="WOvvrHIvMTqIvkMF3Rv9-14">
          <mxGeometry width="50" height="50" relative="1" as="geometry">
            <mxPoint x="200" y="130" as="sourcePoint" />
            <mxPoint x="450" y="250" as="targetPoint" />
          </mxGeometry>
        </mxCell>
        <mxCell id="WOvvrHIvMTqIvkMF3Rv9-16" value="admin_pass" style="ellipse;whiteSpace=wrap;html=1;" vertex="1" parent="1">
          <mxGeometry x="280" y="80" width="100" height="50" as="geometry" />
        </mxCell>
        <mxCell id="WOvvrHIvMTqIvkMF3Rv9-17" value="" style="endArrow=none;html=1;rounded=0;exitX=0.413;exitY=0.013;exitDx=0;exitDy=0;exitPerimeter=0;entryX=0;entryY=0.5;entryDx=0;entryDy=0;" edge="1" parent="1" target="WOvvrHIvMTqIvkMF3Rv9-16">
          <mxGeometry width="50" height="50" relative="1" as="geometry">
            <mxPoint x="199.55999999999995" y="130.77999999999997" as="sourcePoint" />
            <mxPoint x="320" y="120" as="targetPoint" />
          </mxGeometry>
        </mxCell>
        <mxCell id="WOvvrHIvMTqIvkMF3Rv9-18" value="" style="edgeStyle=entityRelationEdgeStyle;fontSize=12;html=1;endArrow=ERone;endFill=1;rounded=0;exitX=0.5;exitY=0;exitDx=0;exitDy=0;" edge="1" parent="1" source="WOvvrHIvMTqIvkMF3Rv9-19">
          <mxGeometry width="100" height="100" relative="1" as="geometry">
            <mxPoint x="90" y="310" as="sourcePoint" />
            <mxPoint x="150" y="160.000048828125" as="targetPoint" />
            <Array as="points">
              <mxPoint x="80" y="301" />
              <mxPoint x="130" y="330" />
              <mxPoint x="80" y="109.19999999999999" />
              <mxPoint x="110" y="39.19999999999999" />
            </Array>
          </mxGeometry>
        </mxCell>
        <mxCell id="WOvvrHIvMTqIvkMF3Rv9-19" value="checks" style="shape=rhombus;perimeter=rhombusPerimeter;whiteSpace=wrap;html=1;align=center;" vertex="1" parent="1">
          <mxGeometry x="30" y="260" width="120" height="60" as="geometry" />
        </mxCell>
        <mxCell id="WOvvrHIvMTqIvkMF3Rv9-21" value="" style="edgeStyle=entityRelationEdgeStyle;fontSize=12;html=1;endArrow=ERmany;rounded=0;exitX=0.5;exitY=1;exitDx=0;exitDy=0;" edge="1" parent="1" source="WOvvrHIvMTqIvkMF3Rv9-19">
          <mxGeometry width="100" height="100" relative="1" as="geometry">
            <mxPoint x="370" y="400" as="sourcePoint" />
            <mxPoint x="150" y="480" as="targetPoint" />
          </mxGeometry>
        </mxCell>
        <mxCell id="WOvvrHIvMTqIvkMF3Rv9-23" value="room" style="whiteSpace=wrap;html=1;align=center;" vertex="1" parent="1">
          <mxGeometry x="150" y="460" width="100" height="40" as="geometry" />
        </mxCell>
        <mxCell id="WOvvrHIvMTqIvkMF3Rv9-24" value="" style="endArrow=none;html=1;rounded=0;exitX=0.5;exitY=0;exitDx=0;exitDy=0;entryX=0.5;entryY=1;entryDx=0;entryDy=0;" edge="1" parent="1" source="WOvvrHIvMTqIvkMF3Rv9-26" target="WOvvrHIvMTqIvkMF3Rv9-23">
          <mxGeometry width="50" height="50" relative="1" as="geometry">
            <mxPoint x="130" y="550" as="sourcePoint" />
            <mxPoint x="200" y="500" as="targetPoint" />
          </mxGeometry>
        </mxCell>
        <mxCell id="WOvvrHIvMTqIvkMF3Rv9-25" value="room_type" style="ellipse;whiteSpace=wrap;html=1;align=center;" vertex="1" parent="1">
          <mxGeometry x="170" y="560" width="100" height="40" as="geometry" />
        </mxCell>
        <mxCell id="WOvvrHIvMTqIvkMF3Rv9-26" value="room_id" style="ellipse;whiteSpace=wrap;html=1;align=center;" vertex="1" parent="1">
          <mxGeometry x="70" y="550" width="100" height="40" as="geometry" />
        </mxCell>
        <mxCell id="WOvvrHIvMTqIvkMF3Rv9-27" value="room_accomodate" style="ellipse;whiteSpace=wrap;html=1;align=center;" vertex="1" parent="1">
          <mxGeometry x="280" y="560" width="100" height="40" as="geometry" />
        </mxCell>
        <mxCell id="WOvvrHIvMTqIvkMF3Rv9-28" value="" style="endArrow=none;html=1;rounded=0;entryX=0.5;entryY=1;entryDx=0;entryDy=0;exitX=0.5;exitY=0;exitDx=0;exitDy=0;" edge="1" parent="1" source="WOvvrHIvMTqIvkMF3Rv9-25" target="WOvvrHIvMTqIvkMF3Rv9-23">
          <mxGeometry width="50" height="50" relative="1" as="geometry">
            <mxPoint x="400" y="590" as="sourcePoint" />
            <mxPoint x="450" y="540" as="targetPoint" />
          </mxGeometry>
        </mxCell>
        <mxCell id="WOvvrHIvMTqIvkMF3Rv9-29" value="" style="endArrow=none;html=1;rounded=0;entryX=0.5;entryY=1;entryDx=0;entryDy=0;exitX=0.5;exitY=0;exitDx=0;exitDy=0;" edge="1" parent="1" source="WOvvrHIvMTqIvkMF3Rv9-27" target="WOvvrHIvMTqIvkMF3Rv9-23">
          <mxGeometry width="50" height="50" relative="1" as="geometry">
            <mxPoint x="400" y="590" as="sourcePoint" />
            <mxPoint x="450" y="540" as="targetPoint" />
          </mxGeometry>
        </mxCell>
        <mxCell id="WOvvrHIvMTqIvkMF3Rv9-30" value="" style="edgeStyle=entityRelationEdgeStyle;fontSize=12;html=1;endArrow=ERone;endFill=1;rounded=0;entryX=1;entryY=0.5;entryDx=0;entryDy=0;exitX=0;exitY=0.5;exitDx=0;exitDy=0;" edge="1" parent="1" source="WOvvrHIvMTqIvkMF3Rv9-31" target="WOvvrHIvMTqIvkMF3Rv9-23">
          <mxGeometry width="100" height="100" relative="1" as="geometry">
            <mxPoint x="360" y="500" as="sourcePoint" />
            <mxPoint x="470" y="520" as="targetPoint" />
          </mxGeometry>
        </mxCell>
        <mxCell id="WOvvrHIvMTqIvkMF3Rv9-31" value="has" style="shape=rhombus;perimeter=rhombusPerimeter;whiteSpace=wrap;html=1;align=center;" vertex="1" parent="1">
          <mxGeometry x="370" y="460" width="120" height="60" as="geometry" />
        </mxCell>
        <mxCell id="WOvvrHIvMTqIvkMF3Rv9-32" value="room_type" style="whiteSpace=wrap;html=1;align=center;" vertex="1" parent="1">
          <mxGeometry x="560" y="470" width="100" height="40" as="geometry" />
        </mxCell>
        <mxCell id="WOvvrHIvMTqIvkMF3Rv9-33" value="room_code" style="ellipse;whiteSpace=wrap;html=1;align=center;" vertex="1" parent="1">
          <mxGeometry x="460" y="550" width="100" height="40" as="geometry" />
        </mxCell>
        <mxCell id="WOvvrHIvMTqIvkMF3Rv9-34" value="room_name" style="ellipse;whiteSpace=wrap;html=1;align=center;" vertex="1" parent="1">
          <mxGeometry x="570" y="560" width="100" height="40" as="geometry" />
        </mxCell>
        <mxCell id="WOvvrHIvMTqIvkMF3Rv9-35" value="amount" style="ellipse;whiteSpace=wrap;html=1;align=center;" vertex="1" parent="1">
          <mxGeometry x="690" y="550" width="100" height="40" as="geometry" />
        </mxCell>
        <mxCell id="WOvvrHIvMTqIvkMF3Rv9-36" value="" style="endArrow=none;html=1;rounded=0;entryX=0.5;entryY=1;entryDx=0;entryDy=0;exitX=0.5;exitY=0;exitDx=0;exitDy=0;" edge="1" parent="1" source="WOvvrHIvMTqIvkMF3Rv9-33" target="WOvvrHIvMTqIvkMF3Rv9-32">
          <mxGeometry width="50" height="50" relative="1" as="geometry">
            <mxPoint x="400" y="590" as="sourcePoint" />
            <mxPoint x="450" y="540" as="targetPoint" />
          </mxGeometry>
        </mxCell>
        <mxCell id="WOvvrHIvMTqIvkMF3Rv9-37" value="" style="endArrow=none;html=1;rounded=0;entryX=0.5;entryY=1;entryDx=0;entryDy=0;exitX=0.5;exitY=0;exitDx=0;exitDy=0;" edge="1" parent="1" source="WOvvrHIvMTqIvkMF3Rv9-34" target="WOvvrHIvMTqIvkMF3Rv9-32">
          <mxGeometry width="50" height="50" relative="1" as="geometry">
            <mxPoint x="400" y="590" as="sourcePoint" />
            <mxPoint x="450" y="540" as="targetPoint" />
          </mxGeometry>
        </mxCell>
        <mxCell id="WOvvrHIvMTqIvkMF3Rv9-38" value="" style="endArrow=none;html=1;rounded=0;entryX=0.5;entryY=1;entryDx=0;entryDy=0;exitX=0.5;exitY=0;exitDx=0;exitDy=0;" edge="1" parent="1" source="WOvvrHIvMTqIvkMF3Rv9-35" target="WOvvrHIvMTqIvkMF3Rv9-32">
          <mxGeometry width="50" height="50" relative="1" as="geometry">
            <mxPoint x="400" y="590" as="sourcePoint" />
            <mxPoint x="450" y="540" as="targetPoint" />
          </mxGeometry>
        </mxCell>
        <mxCell id="WOvvrHIvMTqIvkMF3Rv9-39" value="" style="edgeStyle=entityRelationEdgeStyle;fontSize=12;html=1;endArrow=ERmany;rounded=0;entryX=0;entryY=0.5;entryDx=0;entryDy=0;exitX=1;exitY=0.5;exitDx=0;exitDy=0;" edge="1" parent="1" source="WOvvrHIvMTqIvkMF3Rv9-31" target="WOvvrHIvMTqIvkMF3Rv9-32">
          <mxGeometry width="100" height="100" relative="1" as="geometry">
            <mxPoint x="370" y="620" as="sourcePoint" />
            <mxPoint x="470" y="520" as="targetPoint" />
          </mxGeometry>
        </mxCell>
        <mxCell id="WOvvrHIvMTqIvkMF3Rv9-40" value="" style="edgeStyle=entityRelationEdgeStyle;fontSize=12;html=1;endArrow=ERoneToMany;rounded=0;entryX=0.5;entryY=0;entryDx=0;entryDy=0;exitX=0.5;exitY=1;exitDx=0;exitDy=0;" edge="1" parent="1" source="WOvvrHIvMTqIvkMF3Rv9-41" target="WOvvrHIvMTqIvkMF3Rv9-23">
          <mxGeometry width="100" height="100" relative="1" as="geometry">
            <mxPoint x="260" y="350" as="sourcePoint" />
            <mxPoint x="480" y="570" as="targetPoint" />
          </mxGeometry>
        </mxCell>
        <mxCell id="WOvvrHIvMTqIvkMF3Rv9-41" value="checks" style="shape=rhombus;perimeter=rhombusPerimeter;whiteSpace=wrap;html=1;align=center;" vertex="1" parent="1">
          <mxGeometry x="305" y="270" width="120" height="60" as="geometry" />
        </mxCell>
        <mxCell id="WOvvrHIvMTqIvkMF3Rv9-42" value="receptionist" style="whiteSpace=wrap;html=1;align=center;" vertex="1" parent="1">
          <mxGeometry x="490" y="140" width="100" height="40" as="geometry" />
        </mxCell>
        <mxCell id="WOvvrHIvMTqIvkMF3Rv9-43" value="" style="edgeStyle=entityRelationEdgeStyle;fontSize=12;html=1;endArrow=ERone;endFill=1;rounded=0;exitX=1;exitY=0.5;exitDx=0;exitDy=0;" edge="1" parent="1" source="WOvvrHIvMTqIvkMF3Rv9-41">
          <mxGeometry width="100" height="100" relative="1" as="geometry">
            <mxPoint x="380" y="300" as="sourcePoint" />
            <mxPoint x="490" y="160" as="targetPoint" />
          </mxGeometry>
        </mxCell>
        <mxCell id="WOvvrHIvMTqIvkMF3Rv9-44" value="admin" style="whiteSpace=wrap;html=1;align=center;" vertex="1" parent="1">
          <mxGeometry x="150" y="130" width="100" height="40" as="geometry" />
        </mxCell>
        <mxCell id="WOvvrHIvMTqIvkMF3Rv9-45" value="rec_id" style="ellipse;whiteSpace=wrap;html=1;align=center;" vertex="1" parent="1">
          <mxGeometry x="410" y="90" width="100" height="40" as="geometry" />
        </mxCell>
        <mxCell id="WOvvrHIvMTqIvkMF3Rv9-46" value="rec_fname" style="ellipse;whiteSpace=wrap;html=1;align=center;" vertex="1" parent="1">
          <mxGeometry x="450" y="20" width="100" height="40" as="geometry" />
        </mxCell>
        <mxCell id="WOvvrHIvMTqIvkMF3Rv9-47" value="rec_mname" style="ellipse;whiteSpace=wrap;html=1;align=center;" vertex="1" parent="1">
          <mxGeometry x="550" width="100" height="40" as="geometry" />
        </mxCell>
        <mxCell id="WOvvrHIvMTqIvkMF3Rv9-48" value="rec_lname" style="ellipse;whiteSpace=wrap;html=1;align=center;" vertex="1" parent="1">
          <mxGeometry x="620" y="50" width="100" height="40" as="geometry" />
        </mxCell>
        <mxCell id="WOvvrHIvMTqIvkMF3Rv9-49" value="rec_pass" style="ellipse;whiteSpace=wrap;html=1;align=center;" vertex="1" parent="1">
          <mxGeometry x="660" y="100" width="100" height="40" as="geometry" />
        </mxCell>
        <mxCell id="WOvvrHIvMTqIvkMF3Rv9-50" value="" style="endArrow=none;html=1;rounded=0;entryX=0.5;entryY=1;entryDx=0;entryDy=0;" edge="1" parent="1" target="WOvvrHIvMTqIvkMF3Rv9-45">
          <mxGeometry width="50" height="50" relative="1" as="geometry">
            <mxPoint x="540" y="140" as="sourcePoint" />
            <mxPoint x="460" y="230" as="targetPoint" />
          </mxGeometry>
        </mxCell>
        <mxCell id="WOvvrHIvMTqIvkMF3Rv9-51" value="" style="endArrow=none;html=1;rounded=0;entryX=0.5;entryY=1;entryDx=0;entryDy=0;" edge="1" parent="1" target="WOvvrHIvMTqIvkMF3Rv9-46">
          <mxGeometry width="50" height="50" relative="1" as="geometry">
            <mxPoint x="540" y="140" as="sourcePoint" />
            <mxPoint x="460" y="230" as="targetPoint" />
          </mxGeometry>
        </mxCell>
        <mxCell id="WOvvrHIvMTqIvkMF3Rv9-52" value="" style="endArrow=none;html=1;rounded=0;entryX=0.5;entryY=1;entryDx=0;entryDy=0;exitX=0.5;exitY=0;exitDx=0;exitDy=0;" edge="1" parent="1" source="WOvvrHIvMTqIvkMF3Rv9-42" target="WOvvrHIvMTqIvkMF3Rv9-47">
          <mxGeometry width="50" height="50" relative="1" as="geometry">
            <mxPoint x="410" y="280" as="sourcePoint" />
            <mxPoint x="460" y="230" as="targetPoint" />
          </mxGeometry>
        </mxCell>
        <mxCell id="WOvvrHIvMTqIvkMF3Rv9-53" value="" style="endArrow=none;html=1;rounded=0;entryX=0;entryY=1;entryDx=0;entryDy=0;exitX=0.5;exitY=0;exitDx=0;exitDy=0;" edge="1" parent="1" source="WOvvrHIvMTqIvkMF3Rv9-42" target="WOvvrHIvMTqIvkMF3Rv9-48">
          <mxGeometry width="50" height="50" relative="1" as="geometry">
            <mxPoint x="410" y="280" as="sourcePoint" />
            <mxPoint x="460" y="230" as="targetPoint" />
          </mxGeometry>
        </mxCell>
        <mxCell id="WOvvrHIvMTqIvkMF3Rv9-54" value="" style="endArrow=none;html=1;rounded=0;entryX=0;entryY=0.5;entryDx=0;entryDy=0;exitX=0.5;exitY=0;exitDx=0;exitDy=0;" edge="1" parent="1" source="WOvvrHIvMTqIvkMF3Rv9-42" target="WOvvrHIvMTqIvkMF3Rv9-49">
          <mxGeometry width="50" height="50" relative="1" as="geometry">
            <mxPoint x="410" y="280" as="sourcePoint" />
            <mxPoint x="460" y="230" as="targetPoint" />
          </mxGeometry>
        </mxCell>
        <mxCell id="WOvvrHIvMTqIvkMF3Rv9-55" value="" style="edgeStyle=entityRelationEdgeStyle;fontSize=12;html=1;endArrow=ERone;endFill=1;rounded=0;entryX=1;entryY=0.5;entryDx=0;entryDy=0;exitX=0;exitY=0.5;exitDx=0;exitDy=0;" edge="1" parent="1" source="WOvvrHIvMTqIvkMF3Rv9-56" target="WOvvrHIvMTqIvkMF3Rv9-42">
          <mxGeometry width="100" height="100" relative="1" as="geometry">
            <mxPoint x="610" y="220" as="sourcePoint" />
            <mxPoint x="630" y="210" as="targetPoint" />
          </mxGeometry>
        </mxCell>
        <mxCell id="WOvvrHIvMTqIvkMF3Rv9-56" value="confirms" style="shape=rhombus;perimeter=rhombusPerimeter;whiteSpace=wrap;html=1;align=center;" vertex="1" parent="1">
          <mxGeometry x="830" y="140" width="120" height="60" as="geometry" />
        </mxCell>
        <mxCell id="WOvvrHIvMTqIvkMF3Rv9-57" value="customer" style="whiteSpace=wrap;html=1;align=center;" vertex="1" parent="1">
          <mxGeometry x="1100" y="160" width="100" height="40" as="geometry" />
        </mxCell>
        <mxCell id="WOvvrHIvMTqIvkMF3Rv9-58" value="" style="edgeStyle=entityRelationEdgeStyle;fontSize=12;html=1;endArrow=ERoneToMany;rounded=0;entryX=0;entryY=0.5;entryDx=0;entryDy=0;exitX=1;exitY=0.5;exitDx=0;exitDy=0;" edge="1" parent="1" source="WOvvrHIvMTqIvkMF3Rv9-56" target="WOvvrHIvMTqIvkMF3Rv9-57">
          <mxGeometry width="100" height="100" relative="1" as="geometry">
            <mxPoint x="660" y="300" as="sourcePoint" />
            <mxPoint x="760" y="200" as="targetPoint" />
          </mxGeometry>
        </mxCell>
        <mxCell id="WOvvrHIvMTqIvkMF3Rv9-59" value="cust_id" style="ellipse;whiteSpace=wrap;html=1;align=center;" vertex="1" parent="1">
          <mxGeometry x="1175" y="30" width="100" height="40" as="geometry" />
        </mxCell>
        <mxCell id="WOvvrHIvMTqIvkMF3Rv9-60" value="cust_fname" style="ellipse;whiteSpace=wrap;html=1;align=center;" vertex="1" parent="1">
          <mxGeometry x="1270" y="60" width="100" height="40" as="geometry" />
        </mxCell>
        <mxCell id="WOvvrHIvMTqIvkMF3Rv9-61" value="cust_mname" style="ellipse;whiteSpace=wrap;html=1;align=center;" vertex="1" parent="1">
          <mxGeometry x="1320" y="100" width="100" height="40" as="geometry" />
        </mxCell>
        <mxCell id="WOvvrHIvMTqIvkMF3Rv9-62" value="cust_lname" style="ellipse;whiteSpace=wrap;html=1;align=center;" vertex="1" parent="1">
          <mxGeometry x="1360" y="150" width="100" height="40" as="geometry" />
        </mxCell>
        <mxCell id="WOvvrHIvMTqIvkMF3Rv9-63" value="" style="endArrow=none;html=1;rounded=0;entryX=0.5;entryY=1;entryDx=0;entryDy=0;" edge="1" parent="1" target="WOvvrHIvMTqIvkMF3Rv9-59">
          <mxGeometry width="50" height="50" relative="1" as="geometry">
            <mxPoint x="1200" y="180" as="sourcePoint" />
            <mxPoint x="960" y="230" as="targetPoint" />
          </mxGeometry>
        </mxCell>
        <mxCell id="WOvvrHIvMTqIvkMF3Rv9-64" value="" style="endArrow=none;html=1;rounded=0;entryX=0;entryY=1;entryDx=0;entryDy=0;exitX=1;exitY=0.5;exitDx=0;exitDy=0;" edge="1" parent="1" source="WOvvrHIvMTqIvkMF3Rv9-57" target="WOvvrHIvMTqIvkMF3Rv9-60">
          <mxGeometry width="50" height="50" relative="1" as="geometry">
            <mxPoint x="910" y="280" as="sourcePoint" />
            <mxPoint x="960" y="230" as="targetPoint" />
          </mxGeometry>
        </mxCell>
        <mxCell id="WOvvrHIvMTqIvkMF3Rv9-65" value="" style="endArrow=none;html=1;rounded=0;entryX=0;entryY=0.5;entryDx=0;entryDy=0;" edge="1" parent="1" target="WOvvrHIvMTqIvkMF3Rv9-61">
          <mxGeometry width="50" height="50" relative="1" as="geometry">
            <mxPoint x="1200" y="180" as="sourcePoint" />
            <mxPoint x="960" y="230" as="targetPoint" />
          </mxGeometry>
        </mxCell>
        <mxCell id="WOvvrHIvMTqIvkMF3Rv9-66" value="" style="endArrow=none;html=1;rounded=0;entryX=0;entryY=0.5;entryDx=0;entryDy=0;exitX=1;exitY=0.5;exitDx=0;exitDy=0;" edge="1" parent="1" source="WOvvrHIvMTqIvkMF3Rv9-57" target="WOvvrHIvMTqIvkMF3Rv9-62">
          <mxGeometry width="50" height="50" relative="1" as="geometry">
            <mxPoint x="910" y="280" as="sourcePoint" />
            <mxPoint x="960" y="230" as="targetPoint" />
          </mxGeometry>
        </mxCell>
        <mxCell id="WOvvrHIvMTqIvkMF3Rv9-67" value="cust_address" style="ellipse;whiteSpace=wrap;html=1;align=center;" vertex="1" parent="1">
          <mxGeometry x="1350" y="200" width="100" height="40" as="geometry" />
        </mxCell>
        <mxCell id="WOvvrHIvMTqIvkMF3Rv9-68" value="cust_number" style="ellipse;whiteSpace=wrap;html=1;align=center;" vertex="1" parent="1">
          <mxGeometry x="1330" y="250" width="100" height="40" as="geometry" />
        </mxCell>
        <mxCell id="WOvvrHIvMTqIvkMF3Rv9-69" value="" style="endArrow=none;html=1;rounded=0;entryX=0;entryY=0.5;entryDx=0;entryDy=0;exitX=1;exitY=0.5;exitDx=0;exitDy=0;" edge="1" parent="1" source="WOvvrHIvMTqIvkMF3Rv9-57" target="WOvvrHIvMTqIvkMF3Rv9-67">
          <mxGeometry width="50" height="50" relative="1" as="geometry">
            <mxPoint x="910" y="280" as="sourcePoint" />
            <mxPoint x="960" y="230" as="targetPoint" />
          </mxGeometry>
        </mxCell>
        <mxCell id="WOvvrHIvMTqIvkMF3Rv9-70" value="" style="endArrow=none;html=1;rounded=0;entryX=0;entryY=0;entryDx=0;entryDy=0;" edge="1" parent="1" target="WOvvrHIvMTqIvkMF3Rv9-68">
          <mxGeometry width="50" height="50" relative="1" as="geometry">
            <mxPoint x="1200" y="180" as="sourcePoint" />
            <mxPoint x="960" y="230" as="targetPoint" />
          </mxGeometry>
        </mxCell>
        <mxCell id="WOvvrHIvMTqIvkMF3Rv9-71" value="" style="edgeStyle=entityRelationEdgeStyle;fontSize=12;html=1;endArrow=ERone;endFill=1;rounded=0;entryX=0.5;entryY=1;entryDx=0;entryDy=0;exitX=0.5;exitY=0;exitDx=0;exitDy=0;" edge="1" parent="1" source="WOvvrHIvMTqIvkMF3Rv9-72" target="WOvvrHIvMTqIvkMF3Rv9-57">
          <mxGeometry width="100" height="100" relative="1" as="geometry">
            <mxPoint x="1110" y="250" as="sourcePoint" />
            <mxPoint x="990" y="200" as="targetPoint" />
          </mxGeometry>
        </mxCell>
        <mxCell id="WOvvrHIvMTqIvkMF3Rv9-72" value="creates" style="shape=rhombus;perimeter=rhombusPerimeter;whiteSpace=wrap;html=1;align=center;" vertex="1" parent="1">
          <mxGeometry x="1090" y="360" width="120" height="60" as="geometry" />
        </mxCell>
        <mxCell id="WOvvrHIvMTqIvkMF3Rv9-73" value="transaction" style="whiteSpace=wrap;html=1;align=center;" vertex="1" parent="1">
          <mxGeometry x="1170" y="510" width="100" height="40" as="geometry" />
        </mxCell>
        <mxCell id="WOvvrHIvMTqIvkMF3Rv9-74" value="" style="edgeStyle=entityRelationEdgeStyle;fontSize=12;html=1;endArrow=ERone;endFill=1;rounded=0;entryX=0.5;entryY=0;entryDx=0;entryDy=0;exitX=0.5;exitY=1;exitDx=0;exitDy=0;" edge="1" parent="1" source="WOvvrHIvMTqIvkMF3Rv9-72" target="WOvvrHIvMTqIvkMF3Rv9-73">
          <mxGeometry width="100" height="100" relative="1" as="geometry">
            <mxPoint x="890" y="570" as="sourcePoint" />
            <mxPoint x="990" y="470" as="targetPoint" />
          </mxGeometry>
        </mxCell>
        <mxCell id="WOvvrHIvMTqIvkMF3Rv9-75" value="trans_no" style="ellipse;whiteSpace=wrap;html=1;align=center;" vertex="1" parent="1">
          <mxGeometry x="1290" y="320" width="100" height="40" as="geometry" />
        </mxCell>
        <mxCell id="WOvvrHIvMTqIvkMF3Rv9-76" value="cust_id" style="ellipse;whiteSpace=wrap;html=1;align=center;" vertex="1" parent="1">
          <mxGeometry x="1400" y="330" width="100" height="40" as="geometry" />
        </mxCell>
        <mxCell id="WOvvrHIvMTqIvkMF3Rv9-77" value="rec_id" style="ellipse;whiteSpace=wrap;html=1;align=center;" vertex="1" parent="1">
          <mxGeometry x="1480" y="370" width="100" height="40" as="geometry" />
        </mxCell>
        <mxCell id="WOvvrHIvMTqIvkMF3Rv9-78" value="trans_date" style="ellipse;whiteSpace=wrap;html=1;align=center;" vertex="1" parent="1">
          <mxGeometry x="1580" y="520" width="100" height="40" as="geometry" />
        </mxCell>
        <mxCell id="WOvvrHIvMTqIvkMF3Rv9-79" value="start date" style="ellipse;whiteSpace=wrap;html=1;align=center;" vertex="1" parent="1">
          <mxGeometry x="1540" y="420" width="100" height="40" as="geometry" />
        </mxCell>
        <mxCell id="WOvvrHIvMTqIvkMF3Rv9-80" value="" style="endArrow=none;html=1;rounded=0;entryX=0.5;entryY=1;entryDx=0;entryDy=0;" edge="1" parent="1" target="WOvvrHIvMTqIvkMF3Rv9-75">
          <mxGeometry width="50" height="50" relative="1" as="geometry">
            <mxPoint x="1270" y="530" as="sourcePoint" />
            <mxPoint x="960" y="500" as="targetPoint" />
          </mxGeometry>
        </mxCell>
        <mxCell id="WOvvrHIvMTqIvkMF3Rv9-81" value="" style="endArrow=none;html=1;rounded=0;entryX=0.5;entryY=1;entryDx=0;entryDy=0;exitX=1;exitY=0.5;exitDx=0;exitDy=0;" edge="1" parent="1" source="WOvvrHIvMTqIvkMF3Rv9-73" target="WOvvrHIvMTqIvkMF3Rv9-76">
          <mxGeometry width="50" height="50" relative="1" as="geometry">
            <mxPoint x="910" y="550" as="sourcePoint" />
            <mxPoint x="960" y="500" as="targetPoint" />
          </mxGeometry>
        </mxCell>
        <mxCell id="WOvvrHIvMTqIvkMF3Rv9-82" value="" style="endArrow=none;html=1;rounded=0;entryX=0;entryY=0.5;entryDx=0;entryDy=0;" edge="1" parent="1" target="WOvvrHIvMTqIvkMF3Rv9-77">
          <mxGeometry width="50" height="50" relative="1" as="geometry">
            <mxPoint x="1270" y="530" as="sourcePoint" />
            <mxPoint x="960" y="500" as="targetPoint" />
          </mxGeometry>
        </mxCell>
        <mxCell id="WOvvrHIvMTqIvkMF3Rv9-83" value="" style="endArrow=none;html=1;rounded=0;entryX=0;entryY=0.5;entryDx=0;entryDy=0;" edge="1" parent="1" target="WOvvrHIvMTqIvkMF3Rv9-79">
          <mxGeometry width="50" height="50" relative="1" as="geometry">
            <mxPoint x="1270" y="530" as="sourcePoint" />
            <mxPoint x="960" y="500" as="targetPoint" />
          </mxGeometry>
        </mxCell>
        <mxCell id="WOvvrHIvMTqIvkMF3Rv9-84" value="start_date" style="ellipse;whiteSpace=wrap;html=1;align=center;" vertex="1" parent="1">
          <mxGeometry x="1580" y="470" width="100" height="40" as="geometry" />
        </mxCell>
        <mxCell id="WOvvrHIvMTqIvkMF3Rv9-86" value="end_date" style="ellipse;whiteSpace=wrap;html=1;align=center;" vertex="1" parent="1">
          <mxGeometry x="1550" y="570" width="100" height="40" as="geometry" />
        </mxCell>
        <mxCell id="WOvvrHIvMTqIvkMF3Rv9-87" value="total_payment" style="ellipse;whiteSpace=wrap;html=1;align=center;" vertex="1" parent="1">
          <mxGeometry x="1510" y="620" width="100" height="40" as="geometry" />
        </mxCell>
        <mxCell id="WOvvrHIvMTqIvkMF3Rv9-89" value="payment_type" style="ellipse;whiteSpace=wrap;html=1;align=center;" vertex="1" parent="1">
          <mxGeometry x="1440" y="660" width="100" height="40" as="geometry" />
        </mxCell>
        <mxCell id="WOvvrHIvMTqIvkMF3Rv9-90" value="" style="endArrow=none;html=1;rounded=0;entryX=0;entryY=0.5;entryDx=0;entryDy=0;exitX=1;exitY=0.5;exitDx=0;exitDy=0;" edge="1" parent="1" source="WOvvrHIvMTqIvkMF3Rv9-73" target="WOvvrHIvMTqIvkMF3Rv9-84">
          <mxGeometry width="50" height="50" relative="1" as="geometry">
            <mxPoint x="1050" y="550" as="sourcePoint" />
            <mxPoint x="1340" y="480" as="targetPoint" />
          </mxGeometry>
        </mxCell>
        <mxCell id="WOvvrHIvMTqIvkMF3Rv9-91" value="" style="endArrow=none;html=1;rounded=0;entryX=0;entryY=0.5;entryDx=0;entryDy=0;" edge="1" parent="1" target="WOvvrHIvMTqIvkMF3Rv9-86">
          <mxGeometry width="50" height="50" relative="1" as="geometry">
            <mxPoint x="1270" y="530" as="sourcePoint" />
            <mxPoint x="1100" y="500" as="targetPoint" />
          </mxGeometry>
        </mxCell>
        <mxCell id="WOvvrHIvMTqIvkMF3Rv9-92" value="" style="endArrow=none;html=1;rounded=0;entryX=0;entryY=0.5;entryDx=0;entryDy=0;exitX=1;exitY=0.5;exitDx=0;exitDy=0;" edge="1" parent="1" source="WOvvrHIvMTqIvkMF3Rv9-73" target="WOvvrHIvMTqIvkMF3Rv9-87">
          <mxGeometry width="50" height="50" relative="1" as="geometry">
            <mxPoint x="1050" y="550" as="sourcePoint" />
            <mxPoint x="1100" y="500" as="targetPoint" />
          </mxGeometry>
        </mxCell>
        <mxCell id="WOvvrHIvMTqIvkMF3Rv9-93" value="" style="endArrow=none;html=1;rounded=0;entryX=0;entryY=0;entryDx=0;entryDy=0;" edge="1" parent="1" target="WOvvrHIvMTqIvkMF3Rv9-89">
          <mxGeometry width="50" height="50" relative="1" as="geometry">
            <mxPoint x="1280" y="530" as="sourcePoint" />
            <mxPoint x="1090" y="620" as="targetPoint" />
          </mxGeometry>
        </mxCell>
        <mxCell id="WOvvrHIvMTqIvkMF3Rv9-94" value="" style="edgeStyle=entityRelationEdgeStyle;fontSize=12;html=1;endArrow=ERone;endFill=1;rounded=0;exitX=1;exitY=0.5;exitDx=0;exitDy=0;" edge="1" parent="1" source="WOvvrHIvMTqIvkMF3Rv9-95">
          <mxGeometry width="100" height="100" relative="1" as="geometry">
            <mxPoint x="1070" y="630" as="sourcePoint" />
            <mxPoint x="1170" y="530" as="targetPoint" />
          </mxGeometry>
        </mxCell>
        <mxCell id="WOvvrHIvMTqIvkMF3Rv9-95" value="has" style="shape=rhombus;perimeter=rhombusPerimeter;whiteSpace=wrap;html=1;align=center;" vertex="1" parent="1">
          <mxGeometry x="950" y="510" width="120" height="60" as="geometry" />
        </mxCell>
        <mxCell id="WOvvrHIvMTqIvkMF3Rv9-96" value="" style="endArrow=none;html=1;rounded=0;entryX=0;entryY=0.5;entryDx=0;entryDy=0;" edge="1" parent="1" target="WOvvrHIvMTqIvkMF3Rv9-78">
          <mxGeometry width="50" height="50" relative="1" as="geometry">
            <mxPoint x="1270" y="530" as="sourcePoint" />
            <mxPoint x="1230" y="500" as="targetPoint" />
          </mxGeometry>
        </mxCell>
        <mxCell id="WOvvrHIvMTqIvkMF3Rv9-100" value="payment_type" style="whiteSpace=wrap;html=1;align=center;" vertex="1" parent="1">
          <mxGeometry x="840" y="670.0000000000005" width="100" height="40" as="geometry" />
        </mxCell>
        <mxCell id="WOvvrHIvMTqIvkMF3Rv9-103" value="" style="edgeStyle=entityRelationEdgeStyle;fontSize=12;html=1;endArrow=ERone;endFill=1;rounded=0;exitX=0.5;exitY=0;exitDx=0;exitDy=0;entryX=0;entryY=0.5;entryDx=0;entryDy=0;" edge="1" parent="1" target="WOvvrHIvMTqIvkMF3Rv9-95">
          <mxGeometry width="100" height="100" relative="1" as="geometry">
            <mxPoint x="870" y="670.0000000000005" as="sourcePoint" />
            <mxPoint x="930" y="540" as="targetPoint" />
            <Array as="points">
              <mxPoint x="960" y="555" />
            </Array>
          </mxGeometry>
        </mxCell>
      </root>
    </mxGraphModel>
  </diagram>
</mxfile>
